<svg width="219" height="173" viewBox="0 0 219 173" fill="none" xmlns="http://www.w3.org/2000/svg">
<path fill-rule="evenodd" clip-rule="evenodd" d="M52.211 2.13243C50.591 3.49543 48.24 6.98343 46.985 9.88343C40.153 25.6754 32.418 58.8054 31.337 76.9064C30.983 82.8184 30.42 87.6564 30.085 87.6564C29.749 87.6564 25.313 79.3184 20.226 69.1274C11.134 50.9104 9.45 48.6564 4.935 48.6564C3.071 48.6564 0 52.7154 0 55.1784C0 56.5654 11.463 80.5984 25.474 108.585C47.105 151.793 51.671 160.212 55.74 164.389C63.672 172.533 73.212 174.633 82.538 170.29C92.202 165.79 94.928 161.358 119.321 110.471C131.022 86.0634 134.249 82.2424 144.97 80.1034C150.308 79.0374 150.613 78.7984 153.75 73.2214C155.538 70.0434 157 67.2114 157 66.9274C157 66.6434 153.063 66.6014 148.25 66.8324C137.765 67.3364 131.478 70.2164 123.358 78.2334C118.821 82.7124 116.222 87.3624 101.278 117.733C82.559 155.776 80.572 158.656 73.042 158.656C67.36 158.656 63.699 155.016 58.066 143.765C41.522 110.725 39.705 80.4604 51.635 36.6564C54.915 24.6124 58.056 15.6564 59.001 15.6564C59.404 15.6564 63.675 21.3134 68.491 28.2284C73.446 35.3414 78.248 41.1804 79.551 41.6754C81.205 42.3044 84.061 41.8184 89.677 39.9514C96.46 37.6974 99.161 37.3554 110 37.3824C120.657 37.4074 123.599 37.7824 129.955 39.9264C134.624 41.5004 138.175 42.1644 139.455 41.7034C141.28 41.0464 151.745 27.5684 157.188 18.8644C158.321 17.0534 159.746 15.7384 160.356 15.9414C161.537 16.3354 166.877 32.5564 169.644 44.1564C170.563 48.0064 171.42 51.2954 171.55 51.4664C171.68 51.6364 174.196 50.5114 177.143 48.9664C180.089 47.4204 182.629 46.1024 182.786 46.0374C183.263 45.8384 177.899 26.3354 176.804 24.2894C176.242 23.2394 175.566 21.0084 175.302 19.3314C175.037 17.6554 173.476 13.4354 171.831 9.95442C169.433 4.87842 168.075 3.25643 164.972 1.75643C162.844 0.728427 160.841 0.148425 160.522 0.467425C160.203 0.786425 159.296 1.14243 158.507 1.25843C156.304 1.58143 150.926 5.69443 150.172 7.63143C149.802 8.58143 148.264 10.8884 146.753 12.7574C145.242 14.6274 141.995 18.9494 139.537 22.3624L135.069 28.5694L130.284 27.1604C121.176 24.4784 111.081 23.8154 100.458 25.1994C94.981 25.9134 89.153 27.0134 87.507 27.6444C84.005 28.9874 84.182 29.1584 74.162 14.7424C64.437 0.750427 58.147 -2.86257 52.211 2.13243ZM193.726 50.0644C190.55 50.7464 187.423 51.8334 186.776 52.4804C186.129 53.1274 184.678 53.6584 183.55 53.6604C178.784 53.6704 167.502 63.6134 161.665 72.9474C159.874 75.8124 154.228 86.6354 149.119 96.9994C139.216 117.087 138.751 119.136 143.41 122.189C144.957 123.203 146.731 123.511 148.488 123.07C150.839 122.48 152.605 119.507 162.154 100.065C174.619 74.6864 178.41 69.5404 187.714 65.3654C194.645 62.2544 202 60.8224 202 62.5824C202 63.2324 200.709 66.1024 199.13 68.9604C197.552 71.8184 187.428 91.7714 176.633 113.3C155.066 156.313 153.481 158.656 145.951 158.656C139.728 158.656 136.073 154.494 127.558 137.709L120.23 123.262L116.756 130.709L113.281 138.156L118.85 149.156C122.464 156.295 126.049 161.789 129.065 164.809C140.241 176.002 156.505 174.527 166.059 161.454C170.454 155.441 219.003 58.1654 218.985 55.4104C218.976 54.1704 218.63 52.6224 218.214 51.9694C216.078 48.6104 204.64 47.7204 193.726 50.0644ZM56 68.6564C53.462 71.1944 53.439 74.8384 55.946 77.1074C57.016 78.0754 61.144 79.4874 65.119 80.2454C77.896 82.6794 86.794 89.7004 93.614 102.728C95.351 106.047 97.02 109.009 97.322 109.311C97.624 109.614 99.459 106.709 101.399 102.857L104.926 95.8524L101.143 90.0044C93.925 78.8454 81.772 70.3834 69.201 67.7614C61.555 66.1674 58.267 66.3894 56 68.6564Z" fill="black"/>
</svg>